<svg width="581" height="581" xmlns="http://www.w3.org/2000/svg" xmlns:xlink="http://www.w3.org/1999/xlink" overflow="hidden"><g transform="translate(-823 55)"><path d="M970.501-41 1196.86-41 1196.86 109.507 1348 109.507 1348 449.532C1348 491.212 1314.2 525 1272.5 525L970.501 525C928.803 525 895 491.212 895 449.532L895 34.4681C895-7.21179 928.803-41 970.501-41Z" fill="#FFFFFF" fill-rule="evenodd"/><path d="M1348 110 1197 110 1197-41 1348 110Z" fill="#BFBFBF" fill-rule="evenodd"/><rect x="848" y="275" width="360" height="154" fill="#404040"/><path d="M999.335 304.55 999.335 385.885 1013.69 385.885C1020.4 385.885 1026.05 385.05 1030.64 383.381 1035.24 381.712 1039.08 379.154 1042.16 375.708 1045.24 372.261 1047.55 367.94 1049.1 362.744 1050.64 357.548 1051.41 351.396 1051.41 344.288 1051.41 338.635 1050.7 333.371 1049.3 328.498 1047.89 323.625 1045.69 319.411 1042.69 315.858 1039.69 312.304 1035.89 309.531 1031.29 307.538 1026.7 305.546 1020.78 304.55 1013.53 304.55ZM913.951 304.469 913.951 346.388 926.523 346.388C930.74 346.388 934.242 345.85 937.026 344.773 939.811 343.696 942.15 342.202 944.042 340.29 945.935 338.379 947.368 336.09 948.341 333.425 949.314 330.76 949.801 327.865 949.801 324.742 949.801 320.488 949.003 316.935 947.408 314.081 945.813 311.227 943.84 309.1 941.487 307.7 939.135 306.3 936.702 305.411 934.188 305.035 931.673 304.658 929.226 304.469 926.847 304.469ZM1093.04 293 1140.24 293C1140.62 293 1140.99 293.108 1141.34 293.323 1141.69 293.538 1142 293.888 1142.27 294.373 1142.54 294.858 1142.73 295.49 1142.84 296.271 1142.95 297.052 1143 297.954 1143 298.977 1143 300 1142.95 300.888 1142.84 301.642 1142.73 302.396 1142.54 303.002 1142.27 303.46 1142 303.917 1141.69 304.254 1141.34 304.469 1140.99 304.685 1140.62 304.792 1140.24 304.792L1101.8 304.792 1101.8 340.331 1138.13 340.331C1138.51 340.331 1138.88 340.425 1139.23 340.613 1139.58 340.802 1139.89 341.112 1140.16 341.542 1140.43 341.973 1140.62 342.552 1140.73 343.279 1140.84 344.006 1140.89 344.935 1140.89 346.065 1140.89 347.088 1140.84 347.964 1140.73 348.69 1140.62 349.417 1140.43 350.01 1140.16 350.467 1139.89 350.925 1139.58 351.275 1139.23 351.517 1138.88 351.76 1138.51 351.881 1138.13 351.881L1101.8 351.881 1101.8 395.415C1101.8 395.792 1101.69 396.156 1101.47 396.506 1101.26 396.856 1100.88 397.125 1100.34 397.313 1099.8 397.502 1099.09 397.663 1098.23 397.798 1097.36 397.933 1096.23 398 1094.82 398 1093.52 398 1092.41 397.933 1091.5 397.798 1090.58 397.663 1089.85 397.502 1089.31 397.313 1088.77 397.125 1088.39 396.856 1088.17 396.506 1087.95 396.156 1087.85 395.792 1087.85 395.415L1087.85 298.654C1087.85 296.554 1088.4 295.087 1089.51 294.252 1090.62 293.417 1091.79 293 1093.04 293ZM990.575 293 1014.34 293C1023.42 293 1031.1 294.171 1037.38 296.513 1043.65 298.856 1048.91 302.221 1053.15 306.61 1057.4 310.998 1060.61 316.315 1062.8 322.561 1064.99 328.808 1066.09 335.862 1066.09 343.723 1066.09 352.769 1064.93 360.671 1062.6 367.429 1060.28 374.187 1056.88 379.786 1052.42 384.229 1047.96 388.671 1042.49 391.996 1036 394.204 1029.51 396.412 1021.78 397.515 1012.8 397.515L990.575 397.515C989.332 397.515 988.156 397.098 987.047 396.264 985.939 395.429 985.384 393.962 985.384 391.862L985.384 298.654C985.384 296.554 985.939 295.087 987.047 294.252 988.156 293.417 989.332 293 990.575 293ZM905.515 293 927.983 293C930.254 293 932.43 293.094 934.512 293.283 936.594 293.471 939.054 293.875 941.893 294.494 944.732 295.113 947.625 296.271 950.572 297.967 953.518 299.663 956.019 301.75 958.074 304.227 960.129 306.704 961.711 309.571 962.819 312.829 963.927 316.087 964.482 319.681 964.482 323.612 964.482 328.835 963.617 333.546 961.886 337.746 960.156 341.946 957.682 345.527 954.465 348.488 951.247 351.45 947.3 353.738 942.623 355.354 937.946 356.969 932.363 357.777 925.874 357.777L913.951 357.777 913.951 395.415C913.951 395.846 913.829 396.223 913.586 396.546 913.342 396.869 912.964 397.125 912.45 397.313 911.937 397.502 911.234 397.663 910.341 397.798 909.449 397.933 908.327 398 906.975 398 905.624 398 904.502 397.933 903.609 397.798 902.717 397.663 902.001 397.502 901.46 397.313 900.919 397.125 900.541 396.869 900.325 396.546 900.108 396.223 900 395.846 900 395.415L900 298.977C900 296.823 900.568 295.288 901.703 294.373 902.839 293.458 904.11 293 905.515 293Z" fill="#FFFFFF" fill-rule="evenodd"/><path d="M848 429 895 429 895 460 848 429Z" fill-rule="evenodd"/><path d="M1175.2 167.075C1170.17 167.075 1165.94 168.019 1162.53 169.907 1159.12 171.796 1156.34 174.314 1154.21 177.462 1152.08 180.609 1150.55 184.285 1149.63 188.489 1148.71 192.694 1148.25 197.111 1148.25 201.743 1148.25 206.869 1148.68 211.59 1149.53 215.907 1150.38 220.223 1151.82 223.944 1153.84 227.069 1155.86 230.194 1158.57 232.622 1161.96 234.353 1165.35 236.085 1169.6 236.95 1174.72 236.95 1179.8 236.95 1184.07 236.006 1187.52 234.117 1190.98 232.229 1193.77 229.677 1195.88 226.462 1197.99 223.247 1199.49 219.526 1200.39 215.3 1201.29 211.073 1201.74 206.599 1201.74 201.877 1201.74 196.931 1201.3 192.334 1200.42 188.085 1199.55 183.835 1198.09 180.148 1196.05 177.023 1194 173.898 1191.27 171.459 1187.86 169.705 1184.45 167.951 1180.23 167.075 1175.2 167.075ZM997.959 167.075C992.929 167.075 988.708 168.019 985.294 169.907 981.881 171.796 979.108 174.314 976.975 177.462 974.841 180.609 973.314 184.285 972.394 188.489 971.473 192.694 971.013 197.111 971.013 201.743 971.013 206.869 971.439 211.59 972.293 215.907 973.146 220.223 974.583 223.944 976.604 227.069 978.625 230.194 981.331 232.622 984.722 234.353 988.113 236.085 992.368 236.95 997.487 236.95 1002.56 236.95 1006.83 236.006 1010.29 234.117 1013.75 232.229 1016.53 229.677 1018.64 226.462 1020.75 223.247 1022.26 219.526 1023.15 215.3 1024.05 211.073 1024.5 206.599 1024.5 201.877 1024.5 196.931 1024.06 192.334 1023.19 188.085 1022.31 183.835 1020.85 180.148 1018.81 177.023 1016.77 173.898 1014.04 171.459 1010.62 169.705 1007.21 167.951 1002.99 167.075 997.959 167.075ZM914.726 158.037C915.851 158.037 916.784 158.093 917.526 158.206 918.268 158.318 918.864 158.453 919.313 158.61 919.763 158.768 920.078 158.981 920.257 159.251 920.437 159.52 920.527 159.836 920.527 160.195L920.527 235.669 951.825 235.669C952.229 235.669 952.578 235.77 952.87 235.972 953.162 236.175 953.41 236.467 953.612 236.849 953.815 237.232 953.961 237.737 954.051 238.367 954.14 238.996 954.186 239.761 954.186 240.66 954.186 241.559 954.14 242.312 954.051 242.919 953.961 243.526 953.815 244.044 953.612 244.471 953.41 244.898 953.162 245.213 952.87 245.415 952.578 245.617 952.229 245.718 951.825 245.718L913.243 245.718C912.208 245.718 911.23 245.37 910.309 244.673 909.387 243.976 908.926 242.751 908.926 240.997L908.926 160.195C908.926 159.836 909.016 159.52 909.196 159.251 909.375 158.981 909.69 158.768 910.14 158.61 910.59 158.453 911.196 158.318 911.961 158.206 912.726 158.093 913.647 158.037 914.726 158.037ZM1092.79 157.227C1096.12 157.227 1099.25 157.52 1102.17 158.104 1105.09 158.689 1107.69 159.374 1109.96 160.161 1112.23 160.948 1114.14 161.802 1115.69 162.724 1117.24 163.646 1118.31 164.399 1118.9 164.984 1119.48 165.568 1119.89 166.243 1120.11 167.007 1120.33 167.771 1120.45 168.873 1120.45 170.312 1120.45 171.166 1120.4 171.92 1120.31 172.571 1120.22 173.224 1120.09 173.763 1119.91 174.19 1119.73 174.618 1119.5 174.921 1119.23 175.101 1118.96 175.281 1118.67 175.371 1118.36 175.371 1117.82 175.371 1116.92 174.943 1115.66 174.089 1114.4 173.235 1112.71 172.29 1110.6 171.256 1108.49 170.222 1105.96 169.278 1103.01 168.424 1100.07 167.569 1096.57 167.142 1092.52 167.142 1087.71 167.142 1083.39 168.019 1079.57 169.773 1075.75 171.526 1072.51 173.954 1069.86 177.057 1067.21 180.159 1065.17 183.847 1063.75 188.118 1062.34 192.39 1061.63 197.021 1061.63 202.012 1061.63 207.588 1062.41 212.534 1063.96 216.851 1065.51 221.167 1067.66 224.81 1070.4 227.777 1073.14 230.745 1076.41 232.993 1080.21 234.522 1084.01 236.051 1088.18 236.815 1092.72 236.815 1095.42 236.815 1098.15 236.489 1100.92 235.837 1103.69 235.185 1106.26 234.207 1108.64 232.903L1108.64 207.476 1088.41 207.476C1087.64 207.476 1087.07 207.094 1086.69 206.329 1086.31 205.565 1086.11 204.373 1086.11 202.754 1086.11 201.9 1086.16 201.169 1086.25 200.562 1086.34 199.955 1086.49 199.46 1086.69 199.078 1086.89 198.696 1087.13 198.415 1087.4 198.235 1087.67 198.055 1088 197.965 1088.41 197.965L1116.13 197.965C1116.63 197.965 1117.12 198.055 1117.61 198.235 1118.11 198.415 1118.56 198.685 1118.96 199.045 1119.37 199.404 1119.68 199.899 1119.91 200.528 1120.13 201.158 1120.24 201.877 1120.24 202.687L1120.24 235.938C1120.24 237.108 1120.04 238.119 1119.64 238.974 1119.23 239.828 1118.38 240.581 1117.07 241.233 1115.77 241.885 1114.08 242.593 1112.02 243.358 1109.95 244.122 1107.81 244.774 1105.61 245.314 1103.4 245.853 1101.18 246.258 1098.93 246.528 1096.68 246.798 1094.46 246.932 1092.25 246.932 1085.51 246.932 1079.48 245.887 1074.18 243.796 1068.87 241.705 1064.38 238.727 1060.72 234.859 1057.05 230.992 1054.26 226.361 1052.32 220.965 1050.39 215.569 1049.42 209.544 1049.42 202.889 1049.42 195.965 1050.47 189.692 1052.56 184.071 1054.65 178.451 1057.59 173.662 1061.39 169.705 1065.19 165.748 1069.76 162.679 1075.09 160.499 1080.41 158.318 1086.32 157.227 1092.79 157.227ZM1253.98 157.16C1255.91 157.16 1257.85 157.328 1259.81 157.666 1261.77 158.003 1263.61 158.453 1265.34 159.015 1267.07 159.577 1268.61 160.206 1269.96 160.903 1271.31 161.6 1272.2 162.162 1272.63 162.589 1273.05 163.016 1273.33 163.354 1273.47 163.601 1273.6 163.848 1273.72 164.163 1273.81 164.545 1273.9 164.927 1273.96 165.389 1274.01 165.928 1274.05 166.468 1274.08 167.165 1274.08 168.019 1274.08 168.828 1274.04 169.548 1273.97 170.177 1273.91 170.807 1273.81 171.335 1273.67 171.762 1273.54 172.189 1273.35 172.504 1273.1 172.706 1272.85 172.909 1272.57 173.01 1272.25 173.01 1271.76 173.01 1270.98 172.695 1269.93 172.066 1268.87 171.436 1267.58 170.728 1266.05 169.941 1264.52 169.154 1262.71 168.435 1260.62 167.783 1258.53 167.131 1256.18 166.805 1253.57 166.805 1251.14 166.805 1249.03 167.131 1247.23 167.783 1245.43 168.435 1243.95 169.3 1242.78 170.379 1241.61 171.459 1240.73 172.74 1240.15 174.224 1239.56 175.708 1239.27 177.282 1239.27 178.945 1239.27 181.373 1239.83 183.464 1240.96 185.218 1242.08 186.972 1243.58 188.523 1245.44 189.872 1247.31 191.221 1249.43 192.457 1251.82 193.581 1254.2 194.706 1256.63 195.841 1259.1 196.987 1261.57 198.134 1264 199.393 1266.39 200.765 1268.77 202.136 1270.89 203.755 1272.76 205.621 1274.63 207.487 1276.13 209.69 1277.28 212.231 1278.43 214.771 1279 217.773 1279 221.235 1279 225.327 1278.25 228.969 1276.74 232.161 1275.23 235.354 1273.14 238.063 1270.47 240.289 1267.79 242.514 1264.64 244.19 1261.02 245.314 1257.4 246.438 1253.5 247 1249.32 247 1246.4 247 1243.69 246.753 1241.19 246.258 1238.7 245.763 1236.47 245.156 1234.52 244.437 1232.56 243.717 1230.92 242.976 1229.59 242.211 1228.27 241.447 1227.34 240.795 1226.83 240.255 1226.31 239.716 1225.93 239.03 1225.68 238.198 1225.43 237.366 1225.31 236.253 1225.31 234.859 1225.31 233.87 1225.35 233.049 1225.44 232.398 1225.53 231.745 1225.67 231.217 1225.85 230.812 1226.03 230.408 1226.25 230.127 1226.52 229.969 1226.79 229.812 1227.11 229.733 1227.47 229.733 1228.1 229.733 1228.98 230.116 1230.13 230.88 1231.28 231.644 1232.75 232.476 1234.55 233.376 1236.35 234.275 1238.52 235.118 1241.06 235.905 1243.6 236.692 1246.53 237.085 1249.86 237.085 1252.38 237.085 1254.68 236.748 1256.77 236.073 1258.87 235.399 1260.66 234.443 1262.17 233.207 1263.68 231.97 1264.83 230.453 1265.64 228.654 1266.45 226.855 1266.86 224.81 1266.86 222.516 1266.86 220.043 1266.3 217.93 1265.17 216.176 1264.05 214.423 1262.56 212.883 1260.72 211.556 1258.88 210.23 1256.77 209.016 1254.41 207.914 1252.05 206.813 1249.64 205.688 1247.16 204.542 1244.69 203.395 1242.28 202.125 1239.95 200.731 1237.61 199.337 1235.52 197.696 1233.67 195.807 1231.83 193.919 1230.33 191.704 1229.19 189.164 1228.04 186.623 1227.47 183.577 1227.47 180.024 1227.47 176.382 1228.13 173.134 1229.46 170.278 1230.78 167.423 1232.63 165.029 1234.99 163.095 1237.35 161.162 1240.16 159.689 1243.42 158.677 1246.68 157.666 1250.2 157.16 1253.98 157.16ZM1175.9 157.16C1182.33 157.16 1187.93 158.127 1192.7 160.06 1197.47 161.994 1201.43 164.815 1204.6 168.525 1207.77 172.234 1210.14 176.821 1211.69 182.284 1213.24 187.747 1214.01 194.008 1214.01 201.068 1214.01 208.128 1213.18 214.49 1211.52 220.156 1209.85 225.822 1207.37 230.644 1204.06 234.623 1200.76 238.603 1196.61 241.66 1191.62 243.796 1186.63 245.932 1180.81 247 1174.15 247 1167.58 247 1161.91 246.022 1157.12 244.066 1152.33 242.11 1148.37 239.266 1145.25 235.534 1142.12 231.802 1139.79 227.17 1138.27 221.64 1136.74 216.109 1135.97 209.746 1135.97 202.552 1135.97 195.672 1136.8 189.422 1138.47 183.801 1140.13 178.181 1142.63 173.403 1145.96 169.469 1149.28 165.535 1153.44 162.499 1158.43 160.364 1163.43 158.228 1169.25 157.16 1175.9 157.16ZM998.667 157.16C1005.1 157.16 1010.7 158.127 1015.46 160.06 1020.23 161.994 1024.2 164.815 1027.37 168.525 1030.54 172.234 1032.9 176.821 1034.45 182.284 1036 187.747 1036.78 194.008 1036.78 201.068 1036.78 208.128 1035.95 214.49 1034.28 220.156 1032.62 225.822 1030.13 230.644 1026.83 234.623 1023.52 238.603 1019.38 241.66 1014.38 243.796 1009.39 245.932 1003.57 247 996.914 247 990.349 247 984.671 246.022 979.882 244.066 975.094 242.11 971.136 239.266 968.011 235.534 964.886 231.802 962.559 227.17 961.03 221.64 959.501 216.109 958.736 209.746 958.736 202.552 958.736 195.672 959.568 189.422 961.232 183.801 962.896 178.181 965.392 173.403 968.719 169.469 972.047 165.535 976.206 162.499 981.198 160.364 986.189 158.228 992.012 157.16 998.667 157.16ZM1141.48 52.6799 1126.43 96.1836 1156.79 96.1836 1141.54 52.6799ZM1013.76 52.6799 998.72 96.1836 1029.07 96.1836 1013.83 52.6799ZM1048.12 41.0786 1108.82 41.0786C1109.18 41.0786 1109.51 41.1687 1109.8 41.3485 1110.09 41.5285 1110.34 41.8208 1110.54 42.2254 1110.74 42.63 1110.89 43.1585 1110.98 43.8105 1111.07 44.4623 1111.11 45.2155 1111.11 46.0698 1111.11 46.9241 1111.07 47.6661 1110.98 48.2958 1110.89 48.925 1110.74 49.4311 1110.54 49.8133 1110.34 50.1956 1110.09 50.4766 1109.8 50.6563 1109.51 50.8361 1109.18 50.9261 1108.82 50.9261L1084.27 50.9261 1084.27 126.602C1084.27 126.962 1084.18 127.277 1084 127.547 1083.82 127.816 1083.5 128.03 1083.06 128.187 1082.61 128.345 1082.01 128.48 1081.27 128.592 1080.53 128.704 1079.59 128.761 1078.47 128.761 1077.39 128.761 1076.47 128.704 1075.7 128.592 1074.94 128.48 1074.33 128.345 1073.88 128.187 1073.43 128.03 1073.12 127.816 1072.94 127.547 1072.76 127.277 1072.67 126.962 1072.67 126.602L1072.67 50.9261 1048.12 50.9261C1047.76 50.9261 1047.43 50.8361 1047.14 50.6563 1046.84 50.4766 1046.61 50.1956 1046.43 49.8133 1046.25 49.4311 1046.1 48.925 1045.99 48.2958 1045.88 47.6661 1045.82 46.9241 1045.82 46.0698 1045.82 45.2155 1045.88 44.4623 1045.99 43.8105 1046.1 43.1585 1046.25 42.63 1046.43 42.2254 1046.61 41.8208 1046.84 41.5285 1047.14 41.3485 1047.43 41.1687 1047.76 41.0786 1048.12 41.0786ZM1141.88 40.6742C1143.32 40.6742 1144.51 40.7081 1145.46 40.7754 1146.4 40.843 1147.16 40.9666 1147.75 41.1464 1148.33 41.3262 1148.78 41.5848 1149.1 41.9221 1149.41 42.2593 1149.66 42.6752 1149.84 43.1699L1179.11 124.242C1179.47 125.231 1179.66 126.029 1179.69 126.636 1179.71 127.243 1179.54 127.704 1179.18 128.019 1178.82 128.334 1178.23 128.536 1177.39 128.626 1176.56 128.716 1175.45 128.761 1174.05 128.761 1172.66 128.761 1171.55 128.727 1170.72 128.66 1169.88 128.592 1169.25 128.48 1168.83 128.322 1168.4 128.165 1168.09 127.951 1167.88 127.682 1167.68 127.412 1167.49 127.075 1167.31 126.67L1159.82 105.424 1123.53 105.424 1116.38 126.4C1116.25 126.805 1116.07 127.153 1115.84 127.445 1115.62 127.738 1115.29 127.985 1114.87 128.187 1114.44 128.39 1113.83 128.536 1113.04 128.626 1112.26 128.716 1111.23 128.761 1109.98 128.761 1108.67 128.761 1107.6 128.705 1106.77 128.592 1105.94 128.48 1105.36 128.266 1105.02 127.951 1104.68 127.637 1104.52 127.176 1104.55 126.569 1104.57 125.962 1104.76 125.164 1105.12 124.174L1134.39 43.1023C1134.57 42.6078 1134.81 42.2031 1135.1 41.8882 1135.39 41.5735 1135.82 41.3262 1136.38 41.1464 1136.94 40.9666 1137.66 40.843 1138.54 40.7754 1139.42 40.7081 1140.53 40.6742 1141.88 40.6742ZM1014.17 40.6742C1015.6 40.6742 1016.8 40.7081 1017.74 40.7754 1018.68 40.843 1019.45 40.9666 1020.03 41.1464 1020.62 41.3262 1021.07 41.5848 1021.38 41.9221 1021.7 42.2593 1021.95 42.6752 1022.12 43.1699L1051.4 124.242C1051.76 125.231 1051.95 126.029 1051.97 126.636 1051.99 127.243 1051.83 127.704 1051.47 128.019 1051.11 128.334 1050.51 128.536 1049.68 128.626 1048.85 128.716 1047.73 128.761 1046.34 128.761 1044.95 128.761 1043.83 128.727 1043 128.66 1042.17 128.592 1041.54 128.48 1041.11 128.322 1040.69 128.165 1040.37 127.951 1040.17 127.682 1039.97 127.412 1039.77 127.075 1039.59 126.67L1032.11 105.424 995.819 105.424 988.669 126.4C988.534 126.805 988.354 127.153 988.13 127.445 987.905 127.738 987.579 127.985 987.152 128.187 986.724 128.39 986.117 128.536 985.33 128.626 984.544 128.716 983.52 128.761 982.261 128.761 980.957 128.761 979.889 128.705 979.057 128.592 978.225 128.48 977.641 128.266 977.304 127.951 976.966 127.637 976.809 127.176 976.832 126.569 976.854 125.962 977.045 125.164 977.405 124.174L1006.68 43.1023C1006.86 42.6078 1007.09 42.2031 1007.39 41.8882 1007.68 41.5735 1008.11 41.3262 1008.67 41.1464 1009.23 40.9666 1009.95 40.843 1010.83 40.7754 1011.7 40.7081 1012.82 40.6742 1014.17 40.6742ZM946.38 40C948.898 40 951.349 40.2358 953.732 40.7081 956.115 41.18 958.319 41.7761 960.342 42.4954 962.366 43.2148 964.164 44.0465 965.738 44.9909 967.312 45.9351 968.403 46.7108 969.01 47.3178 969.617 47.9249 970.01 48.3857 970.19 48.7006 970.37 49.0153 970.516 49.3864 970.628 49.8134 970.741 50.2407 970.831 50.7465 970.898 51.3309 970.966 51.9155 971 52.6123 971 53.4217 971 54.3212 970.954 55.0856 970.864 55.7149 970.774 56.3446 970.638 56.873 970.457 57.3001 970.276 57.7273 970.061 58.0419 969.813 58.2445 969.564 58.4465 969.259 58.5479 968.897 58.5479 968.264 58.5479 967.383 58.1095 966.253 57.2324 965.122 56.3559 963.664 55.3891 961.878 54.3324 960.093 53.2757 957.923 52.3089 955.369 51.4323 952.815 50.5552 949.752 50.1169 946.181 50.1169 942.292 50.1169 938.755 50.8926 935.568 52.4438 932.38 53.9952 929.657 56.2771 927.396 59.2899 925.136 62.3024 923.384 65.9784 922.141 70.3175 920.898 74.6567 920.276 79.614 920.276 85.1897 920.276 90.7203 920.875 95.6103 922.073 99.8594 923.271 104.109 924.989 107.661 927.227 110.516 929.464 113.372 932.211 115.53 935.466 116.991 938.721 118.452 942.405 119.183 946.519 119.183 950 119.183 953.04 118.756 955.639 117.902 958.238 117.047 960.453 116.092 962.284 115.035 964.115 113.978 965.618 113.023 966.793 112.169 967.969 111.314 968.895 110.887 969.574 110.887 969.89 110.887 970.162 110.955 970.388 111.089 970.614 111.224 970.794 111.483 970.93 111.865 971.065 112.247 971.167 112.776 971.235 113.45 971.303 114.125 971.337 114.979 971.337 116.013 971.337 116.732 971.314 117.362 971.269 117.902 971.224 118.441 971.146 118.914 971.033 119.318 970.921 119.723 970.775 120.082 970.595 120.397 970.415 120.712 970.1 121.094 969.651 121.544 969.201 121.993 968.257 122.679 966.817 123.601 965.379 124.523 963.591 125.422 961.455 126.299 959.319 127.176 956.869 127.918 954.103 128.525 951.337 129.132 948.313 129.435 945.031 129.435 939.365 129.435 934.25 128.491 929.686 126.602 925.121 124.714 921.232 121.926 918.017 118.239 914.801 114.552 912.328 109.999 910.597 104.581 908.866 99.1624 908 92.9236 908 85.864 908 78.6248 908.933 72.1722 910.799 66.5068 912.666 60.8411 915.285 56.0412 918.658 52.1068 922.03 48.1723 926.066 45.1708 930.765 43.1023 935.464 41.0339 940.669 40 946.38 40Z" fill-rule="evenodd"/></g></svg>