<svg width="1042" height="224" xmlns="http://www.w3.org/2000/svg" xmlns:xlink="http://www.w3.org/1999/xlink" overflow="hidden"><g transform="translate(1100 -359)"><path d="M-999 360-925 398.458-925 582-972.048 557.549-972.048 395.223-999 381.216Z" fill="#FFFFFF" fill-rule="evenodd"/><path d="M-558.013 431.626-564.713 456.071-551.241 456.071ZM-428.496 429.4-428.496 466.554-423.85 466.554C-419.889 466.554-417.071 466.067-415.397 465.093-413.723 464.119-412.412 462.418-411.464 459.99-410.515 457.563-410.041 453.628-410.041 448.186-410.041 440.98-411.101 436.048-413.221 433.389-415.341 430.729-418.857 429.4-423.767 429.4ZM-855.959 427.73-855.959 441.552-847.966 441.552C-847.102 441.552-845.428 441.243-842.945 440.625-841.689 440.346-840.664 439.635-839.869 438.491-839.074 437.347-838.676 436.033-838.676 434.548-838.676 432.353-839.304 430.668-840.559 429.492-841.815 428.317-844.172 427.73-847.632 427.73ZM-447.453 414-419.289 414C-413.737 414-409.253 414.835-405.835 416.505-402.417 418.175-399.593 420.571-397.361 423.694-395.129 426.818-393.511 430.451-392.506 434.595-391.502 438.739-391 443.13-391 447.768-391 455.035-391.746 460.671-393.239 464.675-394.731 468.68-396.803 472.035-399.453 474.741-402.104 477.447-404.949 479.248-407.99 480.145-412.147 481.382-415.913 482-419.289 482L-447.453 482ZM-518.674 414-500.972 414-477.872 451.621-477.872 414-460.003 414-460.003 482-477.872 482-500.847 444.663-500.847 482-518.674 482ZM-568.119 414-547.441 414-524.388 482-544.239 482-547.309 470.775-568.831 470.775-571.821 482-591.177 482ZM-642.486 414-623.529 414-623.529 465.255-593.943 465.255-593.943 482-642.486 482ZM-713.456 414-695.755 414-672.654 451.621-672.654 414-654.786 414-654.786 482-672.654 482-695.629 444.663-695.629 482-713.456 482ZM-745.941 414-726.943 414-726.943 482-745.941 482ZM-809.067 414-758.264 414-758.264 428.518-790.068 428.518-790.068 439.326-760.565 439.326-760.565 453.195-790.068 453.195-790.068 466.6-757.343 466.6-757.343 482-809.067 482ZM-875 414-843.405 414C-837.546 414-833.069 414.557-829.972 415.67-826.875 416.783-824.378 418.847-822.481 421.862-820.584 424.877-819.635 428.549-819.635 432.879-819.635 436.651-820.361 439.906-821.813 442.643-823.264 445.379-825.26 447.598-827.8 449.299-829.419 450.381-831.639 451.278-834.458 451.989-832.2 452.825-830.555 453.661-829.523 454.496-828.826 455.053-827.816 456.245-826.491 458.071-825.167 459.897-824.282 461.305-823.836 462.296L-814.656 482-836.076 482-846.209 461.22C-847.492 458.529-848.636 456.782-849.64 455.978-851.007 454.927-852.556 454.401-854.285 454.401L-855.959 454.401-855.959 482-875 482Z" fill="#FFFFFF" fill-rule="evenodd"/><path d="M-220.497 432.701-227.18 457.034-213.743 457.034ZM-230.577 415.154-209.952 415.154-186.959 482.846-206.759 482.846-209.82 471.672-231.287 471.672-234.269 482.846-253.575 482.846ZM-304.751 415.154-285.843 415.154-285.843 466.177-256.333 466.177-256.333 482.846-304.751 482.846ZM-94.2141 414C-86.395 414-80.4331 415.608-76.3287 418.825-72.2244 422.042-69.7826 427.16-69.0035 434.178L-86.8262 435.332C-87.2992 432.285-88.294 430.069-89.8105 428.683-91.3271 427.298-93.4211 426.605-96.0924 426.605-98.2906 426.605-99.9463 427.121-101.059 428.152-102.172 429.184-102.729 430.438-102.729 431.916-102.729 432.993-102.27 433.963-101.351 434.825-100.461 435.717-98.3462 436.548-95.0071 437.318-86.7427 439.288-80.8227 441.281-77.2471 443.297-73.6713 445.314-71.0696 447.815-69.4418 450.801-67.8139 453.787-67 457.127-67 460.821-67 465.161-68.0852 469.163-70.2557 472.826-72.4261 476.489-75.4592 479.267-79.3548 481.16-83.2506 483.053-88.1619 484-94.0889 484-104.496 484-111.703 481.784-115.71 477.351-119.717 472.918-121.985 467.285-122.513 460.451L-104.524 459.204C-104.134 462.437-103.341 464.899-102.145 466.592-100.197 469.332-97.4141 470.702-93.7967 470.702-91.0976 470.702-89.0175 470.002-87.5566 468.601-86.0957 467.2-85.3653 465.576-85.3653 463.729-85.3653 461.975-86.0609 460.405-87.4523 459.02-88.8437 457.635-92.0714 456.326-97.1358 455.095-105.428 453.032-111.341 450.293-114.875 446.876-118.437 443.459-120.218 439.103-120.218 433.809-120.218 430.33-119.306 427.044-117.484 423.951-115.661 420.857-112.92 418.425-109.261 416.655-105.602 414.885-100.586 414-94.2141 414ZM-156.383 414C-148.564 414-142.602 415.608-138.498 418.825-134.393 422.042-131.951 427.16-131.172 434.178L-148.995 435.332C-149.468 432.285-150.463 430.069-151.979 428.683-153.496 427.298-155.59 426.605-158.261 426.605-160.46 426.605-162.115 427.121-163.228 428.152-164.341 429.184-164.898 430.438-164.898 431.916-164.898 432.993-164.439 433.963-163.52 434.825-162.63 435.717-160.515 436.548-157.176 437.318-148.912 439.288-142.992 441.281-139.416 443.297-135.84 445.314-133.239 447.815-131.611 450.801-129.983 453.787-129.169 457.127-129.169 460.821-129.169 465.161-130.254 469.163-132.425 472.826-134.595 476.489-137.628 479.267-141.524 481.16-145.419 483.053-150.331 484-156.258 484-166.665 484-173.872 481.784-177.879 477.351-181.886 472.918-184.154 467.285-184.682 460.451L-166.693 459.204C-166.303 462.437-165.51 464.899-164.313 466.592-162.366 469.332-159.583 470.702-155.966 470.702-153.266 470.702-151.186 470.002-149.725 468.601-148.265 467.2-147.534 465.576-147.534 463.729-147.534 461.975-148.23 460.405-149.621 459.02-151.013 457.635-154.24 456.326-159.305 455.095-167.597 453.032-173.51 450.293-177.044 446.876-180.606 443.459-182.387 439.103-182.387 433.809-182.387 430.33-181.475 427.044-179.653 423.951-177.83 420.857-175.089 418.425-171.43 416.655-167.771 414.885-162.755 414-156.383 414ZM-345.026 414C-338.264 414-333.207 414.677-329.854 416.032-326.501 417.386-323.718 419.487-321.506 422.334-319.294 425.182-317.631 428.791-316.518 433.162L-334.758 436.764C-335.509 434.209-336.782 432.254-338.577 430.9-340.372 429.545-342.661 428.868-345.443 428.868-349.589 428.868-352.894 430.461-355.356 433.647-357.819 436.833-359.05 441.874-359.05 448.769-359.05 456.095-357.805 461.328-355.315 464.468-352.824 467.608-349.353 469.178-344.901 469.178-342.786 469.178-340.768 468.84-338.849 468.162-336.928 467.485-334.73 466.331-332.254 464.699L-332.254 458.327-344.901 458.327-344.901 444.244-315.683 444.244-315.683 473.103C-321.276 477.32-326.222 480.191-330.521 481.714-334.821 483.238-339.92 484-345.819 484-353.082 484-359.002 482.63-363.579 479.89-368.156 477.151-371.704 473.072-374.223 467.654-376.741 462.237-378 456.018-378 449-378 441.612-376.623 435.186-373.868 429.722-371.113 424.258-367.078 420.11-361.763 417.278-357.617 415.093-352.038 414-345.026 414Z" fill="#FFFFFF" fill-rule="evenodd"/><path d="M-875 509C-875 505.686-872.314 503-869 503L-397 503C-393.686 503-391 505.686-391 509L-391 509C-391 512.314-393.686 515.001-397 515.001L-869 515C-872.314 515-875 512.314-875 509Z" fill="#FFFFFF" fill-rule="evenodd"/><path d="M-304.893 508.546-304.893 544.454-295.138 544.454C-292.125 544.454-289.762 544.165-288.048 543.588-286.334 543.011-284.968 542.199-283.95 541.151-282.516 539.677-281.399 537.694-280.599 535.204-279.799 532.714-279.4 529.695-279.4 526.147-279.4 521.231-280.184 517.454-281.753 514.814-283.321 512.175-285.227 510.406-287.471 509.508-289.092 508.867-291.699 508.546-295.294 508.546ZM-153.346 508.194-153.346 523.743-140.35 523.743C-137.587 523.743-135.426 523.449-133.868 522.861-132.31 522.273-131.126 521.333-130.315 520.04-129.505 518.747-129.1 517.341-129.1 515.824-129.1 513.601-129.884 511.774-131.453 510.342-133.021 508.91-135.499 508.194-138.886 508.194ZM-258.282 508.194-258.282 523.743-245.286 523.743C-242.522 523.743-240.362 523.449-238.803 522.861-237.245 522.273-236.061 521.333-235.25 520.04-234.44 518.747-234.035 517.341-234.035 515.824-234.035 513.601-234.819 511.774-236.388 510.342-237.957 508.91-240.434 508.194-243.821 508.194ZM-81.0962 507.937C-81.6779 510.951-82.4987 513.943-83.5582 516.914L-88.5759 530.7-73.0866 530.7-77.855 517.683C-79.3094 513.729-80.3898 510.481-81.0962 507.937ZM-84.2127 503-77.6992 503-59 550-65.8875 550-71.2168 535.765-90.3212 535.765-95.3387 550-101.759 550ZM-111.94 503-105.894 503-105.894 550-111.94 550ZM-159.392 503-139.135 503C-135.063 503-131.967 503.422-129.848 504.266-127.729 505.111-126.035 506.601-124.768 508.739-123.5 510.876-122.867 513.238-122.867 515.824-122.867 519.158-123.916 521.969-126.014 524.256-128.113 526.543-131.354 527.996-135.738 528.616-134.138 529.407-132.923 530.187-132.092 530.956-130.326 532.623-128.653 534.707-127.074 537.208L-119.127 550-126.731 550-132.777 540.222C-134.543 537.4-135.998 535.242-137.14 533.746-138.283 532.249-139.306 531.202-140.21 530.604-141.114 530.005-142.033 529.589-142.968 529.353-143.654 529.204-144.776 529.129-146.334 529.129L-153.346 529.129-153.346 550-159.392 550ZM-201.552 503-168.517 503-168.517 508.546-195.506 508.546-195.506 522.941-170.231 522.941-170.231 528.456-195.506 528.456-195.506 544.454-167.457 544.454-167.457 550-201.552 550ZM-216.875 503-210.829 503-210.829 550-216.875 550ZM-264.328 503-244.07 503C-239.998 503-236.902 503.422-234.783 504.266-232.664 505.111-230.97 506.601-229.703 508.739-228.436 510.876-227.802 513.238-227.802 515.824-227.802 519.158-228.851 521.969-230.95 524.256-233.048 526.543-236.289 527.996-240.673 528.616-239.073 529.407-237.858 530.187-237.027 530.956-235.261 532.623-233.588 534.707-232.009 537.208L-224.062 550-231.666 550-237.712 540.222C-239.478 537.4-240.933 535.242-242.076 533.746-243.218 532.249-244.242 531.202-245.145 530.604-246.049 530.005-246.969 529.589-247.904 529.353-248.589 529.204-249.711 529.129-251.269 529.129L-258.282 529.129-258.282 550-264.328 550ZM-310.939 503-295.2 503C-291.648 503-288.936 503.224-287.066 503.673-284.448 504.293-282.215 505.415-280.366 507.04-277.956 509.134-276.153 511.811-274.958 515.071-273.764 518.33-273.166 522.054-273.166 526.243-273.166 529.813-273.572 532.976-274.382 535.733-275.192 538.49-276.231 540.772-277.498 542.578-278.766 544.384-280.153 545.805-281.659 546.842-283.165 547.879-284.983 548.664-287.113 549.198-289.243 549.733-291.689 550-294.452 550L-310.939 550ZM-326.137 503-320.091 503-320.091 550-326.137 550ZM-374 503-367.455 503-355.581 537.144C-354.626 539.88-353.826 542.445-353.182 544.838-352.475 542.273-351.654 539.709-350.72 537.144L-338.378 503-332.207 503-350.096 550-356.298 550Z" fill="#FFFFFF" fill-rule="evenodd"/><path d="M-1050 360-976 398.458-976 582-1020.55 558.847-1020.55 395.223-1050 379.918Z" fill="#29A9E8" fill-rule="evenodd"/><path d="M-1099 360-1025 398.458-1025 582-1099 543.542Z" fill="#0C71B9" fill-rule="evenodd"/></g></svg>