<svg width="292" height="293" xmlns="http://www.w3.org/2000/svg" xmlns:xlink="http://www.w3.org/1999/xlink" overflow="hidden"><defs><clipPath id="clip0"><rect x="-453" y="310" width="292" height="293"/></clipPath></defs><g clip-path="url(#clip0)" transform="translate(453 -310)"><path d="M-351.71 390.009C-349.799 389.967-348.244 390.327-347.31 391.171-342.701 395.332-328.255 419.645-328.255 423.239-328.255 424.047-331.872 428.471-336.295 433.066L-344.336 441.423-342.951 445.436C-336.731 463.454-306.643 489.275-288.617 492.069L-284.52 492.703-277.357 483.654C-271.235 475.923-269.76 474.602-267.247 474.602-261.386 474.602-236.395 485.183-233.209 489.015-232.264 490.151-232.033 492.526-232.407 497.191-233.429 509.898-240.962 519.63-252.396 523.02-258 524.677-272.7 524.911-280.135 523.454-293.835 520.774-313.646 511.378-327.544 500.974-360.515 476.286-380.25 444.847-379.129 418.796-378.709 409.02-376.91 404.356-371.467 398.925-366.394 393.864-357.445 390.133-351.71 390.009ZM-302.123 335.862C-316.207 335.261-330.338 337.084-343.711 341.367-378.33 352.451-405.595 377.745-419.1 411.304-432.87 445.519-429.907 485.357-411.252 516.799L-407.252 523.541-412.943 545.542C-416.073 557.644-418.379 567.799-418.068 568.109-417.757 568.418-407.194 566.251-394.596 563.292L-371.689 557.916-364.737 561.691C-352.539 568.32-336.662 573.507-322.75 575.41-313.249 576.708-293.479 575.98-283.706 573.968-235.745 564.096-198.846 527.301-189.111 479.642-186.731 467.984-186.232 448.562-188.029 437.497-194.73 396.267-222.846 360.495-260.815 344.903-274.001 339.488-288.039 336.462-302.123 335.862ZM-302.227 311.112C-283.396 311.734-271.046 314.125-255.159 320.228-235.116 327.927-219.509 338.204-203.587 354.187-182.811 375.044-168.429 403-163.605 431.895-161.524 444.368-161.456 466.24-163.461 478.611-173.583 541.038-221.957 589.29-284.705 599.551-295.992 601.397-320.639 601.189-331.895 599.151-343.439 597.059-355.153 593.428-367.238 588.184L-376.687 584.088-415.068 593.647C-446.049 601.363-453.36 602.895-452.987 601.578-449.744 590.181-434.37 529.124-434.37 527.644-434.37 526.553-434.779 525.406-435.278 525.1-436.711 524.217-445.037 503.843-447.342 495.576-452.644 476.569-454.063 451.099-450.882 432.046-442.079 379.327-403.614 334.611-352.611 317.803-336.515 312.5-321.312 310.481-302.227 311.112Z" fill="#FFFFFF" fill-rule="evenodd"/></g></svg>